<svg xmlns="http://www.w3.org/2000/svg" viewBox="22.217 15 414.304 289.301">
  <defs>
    <style>
      .cls-1 {
        fill: #2e3192;
      }

      .cls-2 {
        fill: #fcaf17;
      }

      .cls-3 {
        fill: #f26522;
      }
    </style>
  </defs>
  <g id="logo_VnW" transform="translate(22.203 15)">
    <g id="Group_1" data-name="Group 1" transform="translate(0.015)">
      <path id="Path_1" data-name="Path 1" class="cls-1" d="M172.652,112.7A20.8,20.8,0,1,0,151.9,91.953,20.667,20.667,0,0,0,172.652,112.7Z" transform="translate(2.603 1.225)"/>
      <path id="Path_2" data-name="Path 2" class="cls-1" d="M230.926,191.7A20.966,20.966,0,0,0,211.7,204.517h38.248C246.591,197.091,239.47,191.7,230.926,191.7Z" transform="translate(3.633 3.304)"/>
      <path id="Path_3" data-name="Path 3" class="cls-1" d="M339.553,233.4A20.8,20.8,0,1,0,318.7,212.653,20.666,20.666,0,0,0,339.553,233.4Z" transform="translate(5.478 3.306)"/>
      <path id="Path_4" data-name="Path 4" class="cls-1" d="M367.284,80.7a10.935,10.935,0,1,0,10.986,10.986A10.855,10.855,0,0,0,367.284,80.7Z" transform="translate(6.127 1.391)"/>
      <path id="Path_5" data-name="Path 5" class="cls-1" d="M280.451,52.591a18.262,18.262,0,0,0-1.119-6.307,31.7,31.7,0,1,0-58.694-23.091c-.407,0-.814-.1-1.221-.1H196.224a17.773,17.773,0,0,0-15.157,8.443,53.433,53.433,0,0,0-5.7-.305A61.423,61.423,0,0,0,140.48,42.114a14.189,14.189,0,0,0-2.747-2.136l-20.04-12.41a17.429,17.429,0,0,0-9.359-2.645,17.625,17.625,0,0,0-15.157,8.443L73.037,65.917,52.9,33.467a17.844,17.844,0,0,0-24.515-5.8L8.443,40.079A17.491,17.491,0,0,0,.508,51.065,17.737,17.737,0,0,0,2.645,64.493l54.829,88.7L41.91,160.113a17.833,17.833,0,0,0-9.053,23.4l39.57,90.127A17.861,17.861,0,0,0,88.7,284.215h0a17.789,17.789,0,0,0,16.276-10.681l12.614-28.889,12.614,28.889a17.789,17.789,0,0,0,16.276,10.681h0a17.861,17.861,0,0,0,16.276-10.579l12.41-28.279a61.741,61.741,0,0,0,59.1,43.945h3.459a17.821,17.821,0,0,0,17.8-17.8V248.816h11.393a17.8,17.8,0,0,0,5.086,10.884l16.174,16.276a17.786,17.786,0,0,0,12.614,5.29h0a17.864,17.864,0,0,0,12.614-5.188l4.476-4.476a61.819,61.819,0,1,0,27.058-117.389c-1.017,0-2.034,0-3.052.1v-8.24a18.057,18.057,0,0,0,5.188-1.017,17.791,17.791,0,0,0,11.495-13.733,39.411,39.411,0,0,0,14.241,2.747,17.8,17.8,0,0,0,11.495,4.272h12.207a17.821,17.821,0,0,0,17.8-17.8V65.612a17.821,17.821,0,0,0-17.8-17.8H384.311a17.234,17.234,0,0,0-11.6,4.374,40.271,40.271,0,0,0-20.446,5.9,17.631,17.631,0,0,0-11.291-4.069H328.77a17.7,17.7,0,0,0-8.85,2.34l-8.036-9.765a17.816,17.816,0,0,0-13.733-6.409,17.312,17.312,0,0,0-6,1.017,17.788,17.788,0,0,0-11.7,16.683Zm17.8,5.188L328.77,94.6V71.715h9.664a40.751,40.751,0,0,0,2.645,46.386v10.172L310.561,91.449v22.989H298.355V57.779Zm-35.6,75.886H239.457V52.591H262.65ZM251.155,17.8a13.936,13.936,0,1,1-13.936,13.936A13.892,13.892,0,0,1,251.155,17.8ZM196.123,54.524V40.893h23.193V145.261H196.123V131.732a41.854,41.854,0,0,1-20.853,5.391,43.891,43.891,0,0,1-43.945-43.945,44.451,44.451,0,0,1,1.526-11.7l10.478-16.886a19.451,19.451,0,0,0,1.628-3.255,43.626,43.626,0,0,1,30.314-12.207A40.557,40.557,0,0,1,196.123,54.524ZM37.841,42.826l35.2,56.863,35.2-56.863,18.921,11.7a63.8,63.8,0,0,0-10.579,19.531L73.037,144.549,17.8,55.236Zm108.742,223.69L117.592,200.4,88.6,266.515,49.132,176.49l20.853-9.359L88.6,209.754l28.991-66.12,28.991,66.12L165.2,167.132l20.853,9.359-1.017,2.238a62.627,62.627,0,0,0-11.495,26.143Zm67.341-35.5a21.014,21.014,0,0,0,20.446,17.395h3.459V271.5h-3.459a43.891,43.891,0,0,1-43.945-43.945v-11.7a37.489,37.489,0,0,1,.407-5.9l9.765-22.176a44.118,44.118,0,0,1,77.92,28.177v12.41l-2.747,2.746H213.924Zm131.122-59.1a44.046,44.046,0,1,1-29.4,76.8l-14.75,14.75-15.767-15.971A17.739,17.739,0,0,0,295.4,236.507l5.493-5.493V146.278h23.193V177.3A42.24,42.24,0,0,1,345.046,171.913Zm51.574-51.37H384.413v-7.121a22.082,22.082,0,0,1-10.986,2.848,22.882,22.882,0,0,1-14.546-5.188V74.97a22.882,22.882,0,0,1,14.546-5.188,22.082,22.082,0,0,1,10.986,2.848V65.408h12.207Z" transform="translate(-0.015)"/>
    </g>
    <g id="Group_5" data-name="Group 5" transform="translate(17.801 17.7)">
      <g id="Group_2" data-name="Group 2">
        <path id="Path_6" data-name="Path 6" class="cls-2" d="M72.736,98.963l35.2-56.863,20.039,12.41L72.736,143.823,17.5,54.51,37.54,42.1Z" transform="translate(-17.5 -16.974)"/>
        <path id="Path_7" data-name="Path 7" class="cls-2" d="M217.191,40.2V144.568H194V131.039a41.852,41.852,0,0,1-20.853,5.391,44.046,44.046,0,0,1,0-88.092A41.573,41.573,0,0,1,194,53.729V40.2Zm-64.9,52.286a20.8,20.8,0,0,0,41.6,0,20.8,20.8,0,1,0-41.6,0Z" transform="translate(-15.575 -17.007)"/>
        <path id="Path_8" data-name="Path 8" class="cls-2" d="M247.136,45.272a13.936,13.936,0,1,1,13.936-13.936A13.892,13.892,0,0,1,247.136,45.272Zm11.495,88.092H235.438V52.291h23.193Z" transform="translate(-13.782 -17.4)"/>
      </g>
      <g id="Group_4" data-name="Group 4" transform="translate(31.331 125.934)">
        <g id="Group_3" data-name="Group 3">
          <path id="Path_9" data-name="Path 9" class="cls-2" d="M87.87,207.32l28.991-66.12,28.991,66.12L164.468,164.7l20.853,9.358-39.57,90.025-28.991-66.12-28.991,66.12L48.3,174.057,69.153,164.7Z" transform="translate(-48.3 -141.2)"/>
          <path id="Path_10" data-name="Path 10" class="cls-2" d="M231.145,245.5H234.6v23.091h-3.459A43.891,43.891,0,0,1,187.2,224.643v-11.7a44.046,44.046,0,0,1,88.093,0V228.1H210.7A21.1,21.1,0,0,0,231.145,245.5Zm.2-53.4a20.966,20.966,0,0,0-19.226,12.817H250.37C247.013,197.483,239.893,192.091,231.348,192.091Z" transform="translate(-45.906 -140.721)"/>
          <path id="Path_11" data-name="Path 11" class="cls-2" d="M340.222,169.434a44.046,44.046,0,1,1-29.4,76.8l-14.75,14.75L279.9,244.71l16.174-16.174V143.8h23.193v31.026A42.239,42.239,0,0,1,340.222,169.434Zm-20.853,44.046a20.853,20.853,0,1,0,20.853-20.853A20.73,20.73,0,0,0,319.369,213.481Z" transform="translate(-44.309 -141.155)"/>
        </g>
      </g>
    </g>
    <g id="Group_6" data-name="Group 6" transform="translate(298.355 57.779)">
      <path id="Path_12" data-name="Path 12" class="cls-3" d="M336.024,127.294,305.507,90.47v22.99H293.3V56.8l30.517,36.824V70.736h12.207Z" transform="translate(-293.3 -56.8)"/>
      <path id="Path_13" data-name="Path 13" class="cls-3" d="M390.686,64.4v54.931H378.479v-7.121a22.082,22.082,0,0,1-10.986,2.848,23.193,23.193,0,0,1,0-46.386,22.083,22.083,0,0,1,10.986,2.848V64.3h12.206ZM356.608,91.969a10.935,10.935,0,1,0,10.884-10.986A10.832,10.832,0,0,0,356.608,91.969Z" transform="translate(-292.421 -56.671)"/>
    </g>
  </g>
</svg>
